<svg width="50" height="50" viewBox="0 0 16 17" fill="none" xmlns="http://www.w3.org/2000/svg">
<path d="M15.645 7.26493L14.5569 5.95197C14.3489 5.70267 14.1809 5.23732 14.1809 4.90492V3.49224C14.1809 2.61139 13.4848 1.88842 12.6368 1.88842H11.2767C10.9647 1.88842 10.5087 1.71392 10.2686 1.49786L9.00456 0.367713C8.45253 -0.122571 7.54847 -0.122571 6.98843 0.367713L5.73236 1.50617C5.49234 1.71392 5.03631 1.88842 4.72429 1.88842H3.34021C2.49215 1.88842 1.79611 2.61139 1.79611 3.49224V4.91323C1.79611 5.23732 1.6281 5.70267 1.42809 5.95197L0.348022 7.27324C-0.116007 7.84662 -0.116007 8.77733 0.348022 9.35072L1.42809 10.672C1.6281 10.9213 1.79611 11.3866 1.79611 11.7107V13.1317C1.79611 14.0126 2.49215 14.7355 3.34021 14.7355H4.72429C5.03631 14.7355 5.49234 14.91 5.73236 15.1261L6.99643 16.2562C7.54847 16.7465 8.45253 16.7465 9.01256 16.2562L10.2766 15.1261C10.5167 14.91 10.9647 14.7355 11.2847 14.7355H12.6448C13.4928 14.7355 14.1889 14.0126 14.1889 13.1317V11.719C14.1889 11.395 14.3569 10.9213 14.5649 10.672L15.653 9.35903C16.117 8.78564 16.117 7.83831 15.645 7.26493ZM11.3247 6.74141L7.46046 10.7551C7.34796 10.8718 7.19545 10.9374 7.03644 10.9374C6.87743 10.9374 6.72492 10.8718 6.61241 10.7551L4.67629 8.74409C4.44428 8.50311 4.44428 8.10423 4.67629 7.86324C4.9083 7.62226 5.29233 7.62226 5.52434 7.86324L7.03644 9.43382L10.4767 5.86056C10.7087 5.61957 11.0927 5.61957 11.3247 5.86056C11.5567 6.10155 11.5567 6.50042 11.3247 6.74141Z" fill="#ee3241"/>
<circle cx="8" cy="8" r="6" fill="#ee3241"/>
<path d="M10.3957 5L8 7.39571L5.60429 5L5 5.60429L7.39571 8L5 10.3957L5.60429 11L8 8.60429L10.3957 11L11 10.3957L8.60429 8L11 5.60429L10.3957 5Z" fill="white"/>
</svg>
