<?xml version="1.0" encoding="utf-8"?>
<!-- Svg Vector Icons : http://www.onlinewebfonts.com/icon -->
<!DOCTYPE svg PUBLIC "-//W3C//DTD SVG 1.1//EN" "http://www.w3.org/Graphics/SVG/1.1/DTD/svg11.dtd">
<svg version="1.1" xmlns="http://www.w3.org/2000/svg" xmlns:xlink="http://www.w3.org/1999/xlink" x="0px" y="0px" viewBox="0 0 256 256" enable-background="new 0 0 256 256" xml:space="preserve">
<metadata> Svg Vector Icons : http://www.onlinewebfonts.com/icon </metadata>
    <g><g><path fill="#000000" d="M25.4,186.6c1.7-0.5,34.3-11.2,34.3-11.2s-3.1-9.9-3.5-11.8c-0.5-2.2-1.3-2.2-1.9-2.3h-0.2L20.5,161C20.5,161,24.3,180.2,25.4,186.6z"/><path fill="#000000" d="M105,175.1c0,0-76.5,31.7-78.4,32.3c-0.8,4.9-4.4,20.3-4.4,20.3h32.6c0,0,2.8,0,3.3-2.1c2.2-8.9,3.6-17,3.8-17.3c0.2-0.8,0.7-2,2.1-2.7c0.7-0.4,56.2-28.5,56.2-28.5s0-5.6,0-9.5H105V175.1z"/><path fill="#000000" d="M42.5,101.9c0-3.4,0-5.8,0-7.3C37.1,92,20,83.2,16.3,81.4c0,3.4,0,7.2,0,7.2v0c0,0.1,0,0.2,0,0.3c0,1.2,0.3,3.7,1.6,4.4c1.9,1.1,20.7,11.1,24.7,13.2c0-0.7,0-1.4,0-2.1c0,0,0-0.1,0-0.1C42.5,103.5,42.5,102.7,42.5,101.9z"/><path fill="#000000" d="M245.9,101.4c-0.1-0.3-0.5-0.6-1.1-0.9c-2.7-0.1-15.1-0.7-28.4-1.3c-0.6,10.3-1.5,27.9-1.8,29.1c-0.1,0.7-1.7,3.8-3.9,7.8c0.6,0.4,1.1,0.7,1.4,0.9c1.3,0.7,3.7,1.1,4.8-0.1c0.7-0.8,4.7-5.6,9.3-11.1c6.6-7.9,14-16.7,15.8-18.7l1.3-1.5c1.8-2,2.5-2.8,2.5-3.7C246,101.7,246,101.6,245.9,101.4z"/><path fill="#000000" d="M98.2,146.1c-3.3,5.2-7.8,8.1-12.6,8.1c-2.3,0-4.5-0.7-6.5-1.9c0,3.3,0,6.3,0,7.3c3,0,38,0,41,0c0-0.8,0-2.7,0-5c-6.1-3.1-13.4-6.8-20.8-10.6C99,144.7,98.6,145.4,98.2,146.1z"/><path fill="#000000" d="M95.3,144.3c0.4-0.6,0.7-1.2,1-1.8c-8.5-4.3-17.2-8.7-24.7-12.6c0.7,11.7,6.7,20.9,14,20.9C89.2,150.8,92.7,148.5,95.3,144.3z"/><path fill="#000000" d="M128.9,137.3l-0.6-0.4c-1.3-0.6-50.8-25-82.4-40.6c0,1.4,0,3.2,0,5.6c0,0.8,0,1.6,0,2.6c0,0,0,0.1,0,0.1c0,9.1,3,10.3,4.6,10.9c2.1,0.9,69.7,35.3,79.9,40.6c0-0.2,0-0.5,0-0.8l0.5-17.1C130.1,137.9,129.4,137.5,128.9,137.3z"/><path fill="#000000" d="M138.4,129.3c3.7-4.8,20.9-24.7,21.8-25.7c0.5-0.7,8.1-10.2,21.2-9.5c9.2,0.5,39.8,2,55.2,2.7c-2.1-0.9-3.9-1.7-3.9-1.7L210.1,85l-7-3.1l-13.6-6c-7.9-3.5-16.1-7.2-24.2-10.7l-14.7-6.6c-7.1-3.2-14.3-6.4-21.6-9.5c-3.3-1.3-14.8-6.6-17.9-8c-6.5-2.9-13.2-5.9-20.2-8.1c-1.8-0.6-10-2.1-12-2.3l-19.6-1c-11.4-0.6-24.3-1.2-27.2-1.4c-8.8-0.6-13,0-14.5,4.8c-0.8,2.7-5,24.3-6.5,30.1c-0.4,1.4-0.6,2.6-0.6,3.5c0,3.3,2,4.2,4.3,5.3l1,0.5c0.9,0.5,114.2,56.2,116.5,57.2c0,0,0,0,0,0l0,0l0,0l0.9,0.5C134.8,131.1,136,131.7,138.4,129.3z"/><path fill="#000000" d="M181.2,97.4c-11.4-0.6-18.3,8.1-18.4,8.2l0,0c-0.2,0.2-21,25.3-24.5,29.8l0,0.1l-0.1,0.1c-1.4,1.5-2.8,2.2-4,2.6c-0.1,6.4-0.4,17-0.4,17c0,0.1,0,0.2,0,0.2c0,2.3,0.9,3.7,5.4,4c2.6,0.2,44.7,1.4,47.9,1.4c2.6,0,4.7-0.3,7-3c2.7-3.2,16.6-28.2,17.5-30.4c0.2-1.4,1-16.1,1.7-28.6C200,98.3,186.8,97.7,181.2,97.4z M193.6,118.5c-1.1,3.3-5.8,19.6-5.8,19.6s-0.6,2.9-2.1,3.8c-1.4,1-4.2,0.7-4.2,0.7c-2.7-0.1-5.5-0.2-8.2-0.3c-4.5-0.1-15.4-0.6-16.4-0.6c-1,0-3.1-0.5-3.5-1.6c-0.6-1.4,0-3.2,0.4-4.6c0.5-1.9,1.1-3.8,1.7-5.7c1.1-4,2.3-7.9,3.5-11.9c0.6-2,0.7-3.9,2.5-5.4c1.8-1.5,4.1-1.3,6.3-1.3c2.1,0,4.3,0.1,6.4,0.1c4.5,0.1,8.9,0.4,13.4,0.6c1.3,0.1,2.7,0.1,4,0.2C195.1,112.4,194.7,115.1,193.6,118.5z"/><path fill="#000000" d="M79.1,167.5c0,3.4,0,5.3,0,5.3l-58.2,20l-0.3-1.8c-1.9-10.7-4.8-27.7-5.3-30H10c0,8.2,0,59.4,0,66.8h6.4c0.7-4.4,4.4-20.7,4.5-21l0.2-1c0,0,78.4-32.3,80.7-33.1c0-1.5,0-2.2,0-5.2H79.1L79.1,167.5z"/></g></g>
</svg>